<svg id="Layer_1" data-name="Layer 1" xmlns="http://www.w3.org/2000/svg" width="257" height="293.2906" viewBox="0 0 257 293.2906"><title>chart-js-logo</title><path d="M261,154.5892c-43.7255.8454-34.6215,28.2062-65.4351,35.127-31.307,7.0309-36.251-75.5664-67.55-75.5664-31.301,0-38.2305,80.23-77.4279,135.3152l-1.1141,1.5611,84.0271,47.94L261,226.2194Z" transform="translate(-5 -6.8272)" fill="#36a2eb" fill-rule="evenodd"/><path d="M261,152.0962c-14.6428-18.5682-24.5705-39.9126-45.93-39.9126-37.8008,0-27.8532,60.95-69.633,60.95S99.2664,107.5711,51.93,169.2015c-15.08,19.6378-27.2205,41.5326-36.7563,62.2518L133.5,298.9664,261,226.2194Z" transform="translate(-5 -6.8272)" fill="#ffce56" fill-rule="evenodd"/><path d="M6,177.3472c14.3444-39.2637,20.5378-71.062,47.9194-71.062,41.78,0,51.7274,116.002,87.5387,104.2051s31.8322-74.7131,87.5386-74.7131c10.6041,0,21.431,6.4155,32.0033,16.8026v73.64l-127.5,72.747L6,226.2194Z" transform="translate(-5 -6.8272)" fill="#fe6184" fill-opacity="0.8" fill-rule="evenodd"/><path d="M133.5,7.9785,261,80.7255V226.2194l-127.5,72.747L6,226.2194V80.7255Z" transform="translate(-5 -6.8272)" fill="none" stroke="#e7e9ed" stroke-width="2"/></svg>